<svg xmlns="http://www.w3.org/2000/svg" xmlns:xlink="http://www.w3.org/1999/xlink" x="0px" y="0px" viewBox="0 0 1660.31 505.42" style="enable-background:new 0 0 1660.31 505.42;" xml:space="preserve"><style type="text/css">	.st0{fill:#FFED00;}</style><g id="logo">	<g>		<g>			<g>				<polygon class="st0" points="302.6,94.17 126.54,411.25 478.66,411.25     "></polygon>				<path d="M489.21,404.84L312.81,88.27c-2.11-3.78-6-6.12-10.21-6.12c-4.21,0-8.1,2.34-10.21,6.12L116,404.84     c-2.12,3.8-2.12,8.48-0.01,12.28c2.11,3.8,6.01,6.14,10.22,6.14H479c4.22,0,8.12-2.34,10.23-6.14     C491.33,413.32,491.33,408.64,489.21,404.84z M151.33,396.66L302.6,124.22l151.27,272.44H151.33z"></path>			</g>		</g>		<path d="M372.45,219.97c-8.8-1.17-13.35-1.58-17.17,0.23c-2.68,1.27-4.75,4.03-5.77,9.78c-1.04,5.91-1.08,7.26-1.13,9.02   c-0.03,1.03-0.29,4.99,2.19,8.37c-0.44,0.41-1,0.93-1.64,1.6c-1.36,1.41-3.73,4-4.68,4.84c-0.95,0.84-3.09,2.86-5,5.08   c-1.91,2.22-3.47,5.62-3.99,6.58c-0.52,0.96-0.95,1.71-1.53,2.31c-0.58,0.6-0.75,0.9-1.65,2.4c-0.9,1.5-2.8,4.78-2.8,4.78   c-0.58,1.2-2.92,5.02-3.47,5.89c-0.55,0.87-3.47,5.53-5.78,10.82c-0.58,1.33-1.9,2.15-2.31,2.64c-1.21,1.44-1.84,2.46-2.38,3.16   c-0.55,0.69-1.4,0.95-2.14,1.32c-1.11,0.56-12.83,9.23-18.11,4.43c-0.3-0.27-0.54-0.02-0.99-0.41c-0.34-0.29-0.68-1.24-0.8-2.1   c-0.46-3.13,0.05-5.04,0.95-7.01c0.73-1.58,2.21-3.46,2.62-4.53c1.37-3.51,0.93-4.64,1.41-6.09c0.33-1.01,0.78-2.85,1.04-4.33   c0.41-2.36,1.7-1.39,1.82-6.99c0.09-3.92,0.28-4.01,0.28-4.42c0-0.23-0.13-0.41-0.24-0.53c-0.1-0.1-0.13-0.26-0.09-0.4   c0.46-1.46,2.72-8.86,1.7-11.38c-0.87-2.14-3.86-5.95-5.64-8.57c-1.78-2.61-2.06-6.7-5.1-11.65c-3.48-5.67-5.95-9.36-7.52-12.16   c-2.86-5.12-2.69-5.06-3.38-7.65c-0.62-2.3-0.94-4.57-0.98-5.06c-0.04-0.5-0.83-4.82-1.32-6.22c-0.51-1.46-0.68-4.58-0.68-4.58   s-0.27-2.78-0.38-3.26s-0.5-1.71-1.81-2.09c-1.24-0.35-2.1,0.02-2.67,0.62c-0.58,0.6-0.79,2.2-0.97,3.04s-0.87,4.03-1.1,5.17   c-0.23,1.14-4.09,3.96-4.74,4.69c-0.69,0.78-1.16,2.22-0.81,3.37c0.4,1.32,1.5,2.58,2.49,3.25c0.98,0.66,3.01,1.5,3.01,1.5   c2.31,0.9,3.05,2.13,3.83,3.8c0.47,1.02,3.16,7.96,3.77,9.69c2.31,6.55,2.46,9.23,3.44,12.35c0.98,3.13,3.53,7.21,4.39,8.66   c0.87,1.44,2.54,4.75,2.83,5.47c0.29,0.72-0.35,1.62-1.21,3.01c-0.77,1.23-3.42,6.48-4.02,7.66c-0.07,0.14-0.22,0.22-0.37,0.19   c-0.35-0.06-0.99-0.16-1.35-0.23c-1.54-0.32-1.73,3.04-1.86,4.49c-0.08,0.91-0.26,2.05-0.87,3.63s-1.69,2.75-2.82,4.73   c-1.13,1.98-0.74,4.19-0.78,5.18c-0.04,0.99-1.56,6.31-2.08,7.57c-0.52,1.26-2.51,3.97-3.43,6.09c-0.74,1.72-2.41,6.21-3.02,7.86   c-0.11,0.3-0.47,0.4-0.71,0.2c-1.11-0.92-4.02-3.23-7.93-5.4c-3.5-1.94-7.7-3.46-9.95-4.21c-1.1-0.37-2.1-1.04-2.77-2.02   c-1.38-2.03-2.25-1.44-2.74-2.39c-0.37-0.71-0.53-0.91-1.03-1.31c-1.33-1.07-3.3-2.24-4.68-2.52c-1.38-0.28-2.46-0.02-3.04,0.63   c-0.25,0.28-0.87,1.35-1.04,1.94c-0.17,0.59-0.37,1.43-0.23,1.91c0.23,0.77,0.51,0.8,0.6,2.01c0.07,0.83,0.03,0.75,0.24,1.71   c0.26,1.17,1.67,1.63,2.18,1.76c1.95,0.5,2.79,0.66,3.27,0.66c0.48,0,1.1,0,1.82,0.51c0.16,0.11,3.03,2.22,6.27,5.08   c2.2,1.93,4.43,4.35,6.62,6.19c4.21,3.54,7.34,4.6,8.6,5.21c0.35,0.17,0.6,0.51,0.66,0.9c0.04,0.21,0.07,0.45,0.11,0.65   c0.09,0.54,0.52,2.12,1.26,3.56s1.6,2.98,2.34,3.61c0.74,0.63,1.78,2.16,3.3,3.52c1.22,1.08,2.6,2.16,3.21,2.55   c0.14,0.09,0.13,0.4,0.16,0.57c0.11,0.79,2.6,3.11,4.72,5.11c2.69,2.52,6.61,5.21,8.8,6.22c1.74,0.81,4.23,1.65,5.66,1.78   c0.85,0.08,1.9,0.21,2.62,0.3c0.32,0.04,0.44,0.45,0.2,0.67c-0.94,0.86-2.72,2.47-3.68,3.18c-1.34,0.99-2.47,1.44-5.51,3.7   c-1.33,0.99-3.9,3.52-4.6,4.33c-0.69,0.81-2.25,1.71-3.77,2.61c-1.52,0.9-3.95,2.61-6.33,5.27s-4.16,6-5.55,7.77   c-1.39,1.77-3.13,3.68-5.15,4.37c-1.62,0.55-3.21-0.09-4.73,0.26c-1.42,0.32-2.91,0.88-4.03,1.44c-0.88,0.43-1.14,0.57-1.89,0.89   c-0.52,0.22-1.09,0.76-1.52,0.76c-0.52,0-1.79-0.1-2.83-0.18c-0.17-0.01-0.91-0.05-1.32,0.01c-0.41,0.06-0.94,0.39-0.92,0.87   c0.01,0.24,0.1,0.33,0.16,0.36c-0.27-0.05-0.47-0.08-0.69-0.11c-0.41-0.04-0.97,0.08-1.1,0.74c-0.22,1.13,1.87,1.45,2.18,1.6   c0.11,0.58,0.55,1.1,1.02,1.38c0.39,0.24,0.76,0.34,1.15,0.4c0.34,0.93,1.71,1.94,3.95,2.42c1.55,0.33,3.53,1.07,6.7-0.14   c3.17-1.22,3.36-1.67,5.05-2.53c1.59-0.81,2.7-1.03,4.39-2.16l-0.02,0.01c0.98-0.63,3.44-3.16,4.89-4.48s4.83-4,6.94-5.65   c2.11-1.65,3.5-2.13,8.32-5.38c3.13-2.11,4.42-3.98,5.67-5.53c0.67-0.84,1.42-1.47,2.31-1.92c1.59-0.8,3.9-2.25,5.55-3.37   s3.73-2.89,4.83-3.79c1.1-0.9,2.8-2.68,3.7-3.31c0.53-0.37,1.16-0.72,3.3-1.35c2.56-0.75,3.7-1.77,5.81-2.58   c2.11-0.81,3.27-3.22,3.5-3.73c0.23-0.51,0.9-2.95,0.9-3.91c0-0.96,0.12-3.73,0.09-4.81c-0.02-0.76-0.13-2.1-0.19-2.84   c-0.09-1.26,0.76-2.12,6.37-0.95c4.26,0.89,3.93,0.72,8.27-0.36c2.77-0.69,3.09-0.99,5.03-2.43c2.54-1.9,1.77-1.83,3.86-3.83   c2.17-2.07,2.12-1.31,3.25-3.79c1.03-2.26,0.3-0.58,1.21-3.53c1.2-3.86,0.33-4.9-0.32-7.83c-0.48-2.16-2.04-4.28-4.22-5   c-1.54-0.51-2.06-1.23-4.91-1.17c-0.99,0.02-4.1,0.39-6.53,1.59c-1.45,0.72-3.18,0.69-3.9,0.96c-0.36,0.14-0.8,0.34-1.16,0.51   c-0.14,0.07-0.28-0.11-0.19-0.24c0.22-0.3,0.47-0.67,0.62-0.99c0.72-1.53,0.81-4.12,1.01-5.11c0.2-0.99,0.58-3.01,0.95-4   c0.17-0.46,1.81-2.61,2.89-4.42c2.69-4.51,3.01-6.73,3.47-9.29c0.4-2.2,0.32-5.08,1.33-7c1.22-2.32,4.77-5.62,5.84-6.85   c1.07-1.23,2.17-3.46,4.45-7.18c1.56-2.55,4.33-5.49,6.16-7.34c1.32,0.48,2.87,0.83,4.67,1.03c9.63,1.04,11.94-0.85,13.08-1.71   c4.51-3.43,5.91-9.92,6.6-15.15C381.17,230.91,380.6,221.06,372.45,219.97z M354.84,230.03c0.74-4.51,5.29-6.9,9.45-6.54   c3.59,0.31,7.59,4.01,5.25,10.46c-0.79,2.18-1.9,3.46-3.09,4.19c0.18-0.39,0.05-1.08-0.04-1.28c-0.21-0.53-0.86-0.81-1.67-0.46   c-0.47,0.21-0.49,0.35-0.75,0.39c-0.26,0.05-0.33-0.29-0.91-0.29c-0.58,0-0.75,0.32-1,0.29c-0.25-0.03-0.46-0.41-0.94-0.53   c-0.51-0.12-0.86,0.15-1.14,0.11c-0.59-0.09-0.66-0.45-1.45-0.45c-0.78,0-1.3,0.63-1.5,0.78c-0.17,0.12-0.37,0.02-0.64,0.13   C354.97,235.28,354.37,232.9,354.84,230.03z"></path>	</g></g><g id="Layer_3">	<g>		<path d="M1476.91,199.12h-27.66V306.3h27.66v-42.27h8.5l28.75,42.27h33.84l-39.41-54.48l36.47-52.71h-33.38l-26.43,40.66h-8.35   V199.12z M1366.56,253.59V223.7h20.55c10.2,0,12.21,2.25,12.21,12.86c0,14.46-1.7,17.03-10.82,17.03H1366.56z M1338.9,306.3h27.66   v-28.44h20.55c8.19-0.32,11.9,4.18,11.59,14.14v14.3h28.13V286.7c0.31-13.18-5.87-20.25-18.55-20.89v-1.13   c7.26-1.93,9.74-2.89,12.36-5.14c5.1-4.18,6.95-11.41,6.95-27c0-14.46-2.47-22.02-9.12-27.16c-6.03-4.82-12.67-6.27-27.51-6.27   h-52.08V306.3z M1268.74,222.74h46.98v-23.62h-74.64V306.3h75.57v-23.62h-47.91v-20.89h43.89v-19.77h-43.89V222.74z    M1223.93,199.12h-27.66l-8.04,41.3c-2.78,13.98-5.25,27.64-7.57,41.3h-0.93c-1.08-4.98-2.01-9.64-3.09-14.46   c-0.77-4.18-2.78-13.02-5.87-26.83l-9.58-41.3h-28.43l-9.89,41.3l-4.95,20.73l-2.32,10.29l-2.16,10.28h-1.08   c-1.08-7.07-2.16-13.82-3.4-20.57l-3.71-20.73l-7.73-41.3h-27.66l22.1,107.18h39.25l7.73-33.59c1.39-5.62,2.63-11.09,3.86-16.71   c0.15-0.48,0.77-3.7,1.7-8.52c0.62-3.05,1.39-6.75,1.7-8.36h1.08c2.16,11.25,4.33,22.5,6.8,33.59l7.11,33.59h39.72L1223.93,199.12   z M1028.43,223.7h27.82v-24.59h-81.6v24.59h26.12v82.6h27.66V223.7z M956.72,199.12h-27.35v42.91c0,12.69,0.16,14.78,0.77,28.93   l0.31,9.64h-1.08c-2.01-5.95-4.02-12.05-6.03-18.16c-2.32-6.11-4.48-12.05-6.65-18.16l-16.38-45.15H853.8V306.3h27.05V263.4   c0-12.7-0.16-15.11-0.77-29.73l-0.47-9.96h1.24l6.18,18.8c2.16,6.11,4.48,12.37,6.64,18.64l16.23,45.16h46.83V199.12z    M801.25,199.12v68.46c0,12.7-2.47,14.94-15.76,14.94c-15.76,0-18.55-1.93-18.55-13.5v-69.9h-27.66v69.9c0,5.78,0,6.91,0.31,10.12   c0.77,12.53,4.64,19.12,13.76,23.62c6.8,3.21,14.84,4.34,31.22,4.34c17.46,0,24.11-1.13,30.91-4.98   c6.95-4.02,11.43-11.25,12.52-20.09c0.15-1.44,0.93-13.66,0.93-15.27v-67.65H801.25z M693.54,223.7h27.82v-24.59h-81.6v24.59   h26.12v82.6h27.66V223.7z M621.99,232.54l0.15-4.82c0-9-1.7-15.43-5.56-20.25c-5.26-6.91-14.06-9.16-35.7-9.16   c-20.09,0-28.75,1.61-35.54,6.59c-5.87,4.34-8.5,12.37-8.5,25.39c0,19.12,4.64,27,17.46,30.37c5.25,1.29,13.75,2.25,30.6,3.21   c10.82,0.64,12.98,2.41,12.98,9.96c0,4.34-0.93,6.75-2.94,8.52c-2.32,2.09-3.71,2.25-12.67,2.25c-12.67,0-13.91-0.16-16.23-2.09   c-2.16-1.61-3.09-4.34-3.09-8.84v-2.09h-26.27c0,13.02,0.93,18.8,4.17,24.1c5.26,8.68,15.14,11.41,41.42,11.41   c20.4,0,28.75-1.93,35.54-8.03c5.26-4.82,7.26-12.21,7.26-26.68c0-17.2-3.71-24.26-14.99-27.96c-6.49-2.09-6.8-2.09-31.83-4.02   c-8.81-0.64-9.74-0.8-11.44-2.41c-1.55-1.29-2.32-3.86-2.32-7.39c0-8.52,3.25-10.45,16.69-10.45c11.75,0,14.53,1.93,14.53,10.45   v1.93H621.99z"></path>	</g></g><g id="Layer_5"></g><g id="grid"></g><g id="Layer_4"></g></svg>